<svg width="48" height="48" viewBox="0 0 48 48" fill="none" xmlns="http://www.w3.org/2000/svg">
<rect width="48" height="48" rx="24" fill="#D9D9D9" fill-opacity="0.22"/>
<g clip-path="url(#clip0_18_945)">
<path d="M31.7832 15.9795H16.6763C15.8775 15.9795 15.2295 16.6005 15.2295 17.366V31.8435C15.2295 32.6089 15.8775 33.23 16.6763 33.23H31.7832C32.582 33.23 33.23 32.6089 33.23 31.8435V17.366C33.23 16.6005 32.582 15.9795 31.7832 15.9795ZM31.7832 31.8499C21.7074 31.8478 16.6695 31.8456 16.6695 31.8435C16.6718 22.1875 16.674 17.3595 16.6763 17.3595C26.7521 17.3617 31.7899 17.3638 31.7899 17.366C31.7877 27.0219 31.7854 31.8499 31.7832 31.8499ZM17.8981 22.4463H20.5689V30.679H17.8981V22.4463ZM19.2346 21.3207C20.0874 21.3207 20.7826 20.6565 20.7826 19.8371C20.7826 19.6423 20.7426 19.4494 20.6648 19.2694C20.587 19.0894 20.473 18.9259 20.3292 18.7881C20.1855 18.6503 20.0148 18.5411 19.827 18.4665C19.6392 18.392 19.4379 18.3536 19.2346 18.3536C19.0313 18.3536 18.83 18.392 18.6422 18.4665C18.4544 18.5411 18.2837 18.6503 18.14 18.7881C17.9962 18.9259 17.8822 19.0894 17.8044 19.2694C17.7266 19.4494 17.6866 19.6423 17.6866 19.8371C17.6843 20.6565 18.3773 21.3207 19.2346 21.3207ZM24.9115 26.6058C24.9115 25.5319 25.1253 24.4926 26.5135 24.4926C27.8816 24.4926 27.9018 25.7195 27.9018 26.6748V30.679H30.5704V26.1637C30.5704 23.9471 30.0709 22.2414 27.3686 22.2414C26.0703 22.2414 25.1995 22.925 24.8418 23.5719H24.8057V22.4463H22.2429V30.679H24.9115V26.6058Z" fill="white"/>
</g>
<defs>
<clipPath id="clip0_18_945">
<rect width="18.0005" height="18.0005" fill="white" transform="translate(15.2295 15.2295)"/>
</clipPath>
</defs>
</svg>
