<svg width="48" height="48" viewBox="0 0 48 48" fill="none" xmlns="http://www.w3.org/2000/svg">
<rect width="48" height="48" rx="24" fill="#D9D9D9" fill-opacity="0.22"/>
<path d="M24.3008 14.2506C22.3726 14.2238 20.4798 14.7694 18.8617 15.8184C17.2436 16.8674 15.9729 18.3726 15.2103 20.1438C14.4477 21.915 14.2274 23.8725 14.5773 25.7688C14.9273 27.6652 15.8316 29.4152 17.1761 30.7976C18.5206 32.1799 20.2449 33.1325 22.1308 33.535C24.0167 33.9374 25.9796 33.7715 27.7712 33.0584C29.5629 32.3452 31.1028 31.1168 32.1963 29.5285C33.2898 27.9401 33.8878 26.0632 33.9145 24.135C33.9477 21.5502 32.9541 19.0578 31.1518 17.2047C29.3494 15.3516 26.8856 14.2892 24.3008 14.2506ZM24.8014 32.2246L24.8842 26.2598L27.134 26.2911C27.3328 26.2938 27.5247 26.2175 27.6673 26.0788C27.8099 25.9401 27.8915 25.7504 27.8943 25.5516C27.8971 25.3527 27.8207 25.1608 27.682 25.0182C27.5433 24.8756 27.3537 24.794 27.1548 24.7912L24.905 24.76L24.9362 22.5102C24.9417 22.1124 25.1051 21.7331 25.3902 21.4557C25.6754 21.1784 26.0591 21.0256 26.4569 21.0312L27.9568 21.052C28.1557 21.0547 28.3475 20.9784 28.4901 20.8397C28.6327 20.701 28.7143 20.5114 28.7171 20.3125C28.7199 20.1136 28.6435 19.9217 28.5048 19.7791C28.3661 19.6365 28.1765 19.5549 27.9776 19.5521L26.4777 19.5313C25.6822 19.5203 24.9148 19.8257 24.3444 20.3805C23.774 20.9352 23.4474 21.6938 23.4364 22.4894L23.4051 24.7392L21.1554 24.7079C20.9565 24.7052 20.7646 24.7815 20.622 24.9202C20.4794 25.0589 20.3978 25.2485 20.395 25.4474C20.3923 25.6463 20.4686 25.8382 20.6073 25.9808C20.746 26.1234 20.9356 26.205 21.1345 26.2078L23.3843 26.239L23.3015 32.2037C21.1901 31.9814 19.2457 30.9537 17.8728 29.3343C16.4998 27.715 15.804 25.6287 15.93 23.5094C16.0561 21.3901 16.9943 19.4009 18.5495 17.9557C20.1047 16.5105 22.1572 15.7204 24.28 15.7499C26.4028 15.7794 28.4326 16.6261 29.9471 18.1139C31.4616 19.6018 32.3442 21.6162 32.4114 23.7382C32.4785 25.8601 31.725 27.9263 30.3076 29.507C28.8903 31.0876 26.9181 32.0609 24.8014 32.2246Z" fill="white"/>
</svg>
