<svg width="48" height="48" viewBox="0 0 48 48" fill="none" xmlns="http://www.w3.org/2000/svg">
<rect width="48" height="48" rx="24" fill="#D9D9D9" fill-opacity="0.22"/>
<g clip-path="url(#clip0_18_952)">
<path d="M24.321 19.6656C23.431 19.6532 22.5574 19.9051 21.8106 20.3892C21.0638 20.8734 20.4773 21.5681 20.1253 22.3855C19.7734 23.203 19.6717 24.1065 19.8332 24.9817C19.9947 25.857 20.4121 26.6647 21.0326 27.3027C21.6532 27.9407 22.449 28.3804 23.3194 28.5661C24.1898 28.7518 25.0958 28.6753 25.9227 28.3461C26.7496 28.017 27.4603 27.45 27.965 26.7169C28.4697 25.9838 28.7457 25.1176 28.7581 24.2276C28.7734 23.0346 28.3148 21.8843 27.4829 21.029C26.6511 20.1737 25.5139 19.6834 24.321 19.6656ZM24.2168 27.1649C23.6236 27.1566 23.046 26.9727 22.5573 26.6362C22.0686 26.2997 21.6906 25.8259 21.4712 25.2746C21.2517 24.7234 21.2007 24.1194 21.3245 23.5391C21.4484 22.9588 21.7415 22.4283 22.1668 22.0146C22.5922 21.6009 23.1306 21.3226 23.7141 21.215C24.2976 21.1073 24.8999 21.1751 25.4449 21.4097C25.9899 21.6444 26.453 22.0354 26.7758 22.5332C27.0986 23.0311 27.2664 23.6135 27.2582 24.2068C27.2472 25.0024 26.9205 25.761 26.3502 26.3157C25.7798 26.8705 25.0124 27.1759 24.2168 27.1649ZM28.8934 14.4786L19.8943 14.3536C18.5025 14.3358 17.1604 14.8708 16.1626 15.8413C15.1648 16.8118 14.5927 18.1385 14.5719 19.5303L14.447 28.5294C14.4291 29.9212 14.9642 31.2633 15.9346 32.2611C16.9051 33.2589 18.2318 33.8309 19.6236 33.8518L28.6227 33.9767C30.0145 33.9945 31.3566 33.4595 32.3544 32.489C33.3522 31.5185 33.9243 30.1919 33.9451 28.8001L34.07 19.8009C34.0879 18.4091 33.5528 17.0671 32.5823 16.0693C31.6119 15.0715 30.2852 14.4994 28.8934 14.4786ZM32.4452 28.7793C32.4314 29.7737 32.0231 30.722 31.3102 31.4154C30.5972 32.1088 29.638 32.4906 28.6435 32.4768L19.6444 32.3519C18.6499 32.3381 17.7017 31.9298 17.0083 31.2169C16.3148 30.5039 15.933 29.5447 15.9468 28.5502L16.0718 19.5511C16.0856 18.5566 16.4938 17.6084 17.2068 16.9149C17.9198 16.2215 18.879 15.8397 19.8734 15.8535L28.8726 15.9784C29.867 15.9922 30.8153 16.4005 31.5087 17.1135C32.2022 17.8264 32.584 18.7857 32.5702 19.7801L32.4452 28.7793ZM30.3256 19.3739C30.3225 19.5964 30.2535 19.813 30.1273 19.9963C30.0012 20.1795 29.8235 20.3213 29.6167 20.4036C29.41 20.4858 29.1835 20.505 28.9659 20.4585C28.7483 20.4121 28.5494 20.3022 28.3942 20.1427C28.2391 19.9832 28.1347 19.7813 28.0944 19.5624C28.054 19.3436 28.0794 19.1178 28.1674 18.9134C28.2554 18.709 28.402 18.5354 28.5887 18.4143C28.7754 18.2933 28.9938 18.2303 29.2163 18.2334C29.5146 18.2376 29.7991 18.36 30.0072 18.5739C30.2152 18.7878 30.3297 19.0756 30.3256 19.3739Z" fill="white"/>
</g>
<defs>
<clipPath id="clip0_18_952">
<rect width="24" height="24" fill="white" transform="translate(12 12)"/>
</clipPath>
</defs>
</svg>
