<svg width="32" height="33" viewBox="0 0 32 33" fill="none" xmlns="http://www.w3.org/2000/svg">
<g clip-path="url(#clip0_159_3663)">
<path d="M8.48 20.525H10.7947C10.889 20.525 10.9794 20.4875 11.0461 20.4208C11.1128 20.3542 11.1502 20.2637 11.1502 20.1694V17.8548C11.1502 17.7605 11.1128 17.67 11.0461 17.6033C10.9794 17.5367 10.889 17.4992 10.7947 17.4992H8.48C8.3857 17.4992 8.29526 17.5367 8.22858 17.6033C8.1619 17.67 8.12444 17.7605 8.12444 17.8548V20.1694C8.12444 20.2637 8.1619 20.3542 8.22858 20.4208C8.29526 20.4875 8.3857 20.525 8.48 20.525ZM8.83556 18.2103H10.4356V19.8139H8.83556V18.2103ZM3.85778 20.525H6.17244C6.26674 20.525 6.35718 20.4875 6.42386 20.4208C6.49054 20.3542 6.528 20.2637 6.528 20.1694V17.8548C6.528 17.7605 6.49054 17.67 6.42386 17.6033C6.35718 17.5367 6.26674 17.4992 6.17244 17.4992H3.85067C3.75637 17.4992 3.66593 17.5367 3.59925 17.6033C3.53257 17.67 3.49511 17.7605 3.49511 17.8548V20.1694C3.49511 20.2637 3.53257 20.3542 3.59925 20.4208C3.66593 20.4875 3.75637 20.525 3.85067 20.525H3.85778ZM4.21333 18.2103H5.81333V19.8139H4.21333V18.2103ZM8.48 25.1543H10.7947C10.889 25.1543 10.9794 25.1168 11.0461 25.0502C11.1128 24.9835 11.1502 24.893 11.1502 24.7987V22.4876C11.1502 22.3933 11.1128 22.3029 11.0461 22.2362C10.9794 22.1695 10.889 22.1321 10.7947 22.1321H8.48C8.3857 22.1321 8.29526 22.1695 8.22858 22.2362C8.1619 22.3029 8.12444 22.3933 8.12444 22.4876V24.7987C8.12444 24.893 8.1619 24.9835 8.22858 25.0502C8.29526 25.1168 8.3857 25.1543 8.48 25.1543ZM8.83556 22.8396H10.4356V24.4396H8.83556V22.8396ZM13.1022 20.525H15.4133C15.5076 20.525 15.5981 20.4875 15.6647 20.4208C15.7314 20.3542 15.7689 20.2637 15.7689 20.1694V17.8548C15.7689 17.7605 15.7314 17.67 15.6647 17.6033C15.5981 17.5367 15.5076 17.4992 15.4133 17.4992H13.1022C13.0079 17.4992 12.9175 17.5367 12.8508 17.6033C12.7841 17.67 12.7467 17.7605 12.7467 17.8548V20.1694C12.7467 20.2167 12.7561 20.2635 12.7744 20.3071C12.7927 20.3508 12.8195 20.3903 12.8533 20.4234C12.8871 20.4565 12.9271 20.4825 12.9711 20.5C13.015 20.5174 13.062 20.5259 13.1093 20.525H13.1022ZM13.4578 18.2103H15.0578V19.8139H13.4578V18.2103ZM13.1022 15.8992H15.4133C15.5076 15.8992 15.5981 15.8617 15.6647 15.7951C15.7314 15.7284 15.7689 15.6379 15.7689 15.5436V13.229C15.7689 13.1347 15.7314 13.0442 15.6647 12.9776C15.5981 12.9109 15.5076 12.8734 15.4133 12.8734H13.1022C13.0079 12.8734 12.9175 12.9109 12.8508 12.9776C12.7841 13.0442 12.7467 13.1347 12.7467 13.229V15.5401C12.7462 15.5877 12.7553 15.6349 12.7734 15.6789C12.7915 15.7229 12.8182 15.7629 12.852 15.7964C12.8859 15.8299 12.9261 15.8562 12.9703 15.8739C13.0145 15.8915 13.0617 15.9002 13.1093 15.8992H13.1022ZM13.4578 13.5845H15.0578V15.1845H13.4578V13.5845ZM13.1022 25.1543H15.4133C15.5076 25.1543 15.5981 25.1168 15.6647 25.0502C15.7314 24.9835 15.7689 24.893 15.7689 24.7987V22.4876C15.7689 22.3933 15.7314 22.3029 15.6647 22.2362C15.5981 22.1695 15.5076 22.1321 15.4133 22.1321H13.1022C13.0079 22.1321 12.9175 22.1695 12.8508 22.2362C12.7841 22.3029 12.7467 22.3933 12.7467 22.4876V24.7987C12.7467 24.846 12.7561 24.8929 12.7744 24.9365C12.7927 24.9801 12.8195 25.0196 12.8533 25.0527C12.8871 25.0858 12.9271 25.1119 12.9711 25.1293C13.015 25.1468 13.062 25.1553 13.1093 25.1543H13.1022ZM13.4578 22.8396H15.0578V24.4396H13.4578V22.8396ZM17.7244 20.525H20.0391C20.1334 20.525 20.2238 20.4875 20.2905 20.4208C20.3572 20.3542 20.3947 20.2637 20.3947 20.1694V17.8548C20.3947 17.7605 20.3572 17.67 20.2905 17.6033C20.2238 17.5367 20.1334 17.4992 20.0391 17.4992H17.7351C17.6408 17.4992 17.5504 17.5367 17.4837 17.6033C17.417 17.67 17.3796 17.7605 17.3796 17.8548V20.1694C17.3796 20.2637 17.417 20.3542 17.4837 20.4208C17.5504 20.4875 17.6408 20.525 17.7351 20.525H17.7244ZM18.08 18.2103H19.6836V19.8139H18.0907L18.08 18.2103ZM17.7244 25.1543H20.0391C20.1334 25.1543 20.2238 25.1168 20.2905 25.0502C20.3572 24.9835 20.3947 24.893 20.3947 24.7987V22.4876C20.3947 22.3933 20.3572 22.3029 20.2905 22.2362C20.2238 22.1695 20.1334 22.1321 20.0391 22.1321H17.7351C17.6408 22.1321 17.5504 22.1695 17.4837 22.2362C17.417 22.3029 17.3796 22.3933 17.3796 22.4876V24.7987C17.3796 24.893 17.417 24.9835 17.4837 25.0502C17.5504 25.1168 17.6408 25.1543 17.7351 25.1543H17.7244ZM18.08 22.8396H19.6836V24.4396H18.0907L18.08 22.8396ZM3.85067 25.1543H6.16533C6.25963 25.1543 6.35007 25.1168 6.41675 25.0502C6.48343 24.9835 6.52089 24.893 6.52089 24.7987V22.4876C6.52089 22.3933 6.48343 22.3029 6.41675 22.2362C6.35007 22.1695 6.25963 22.1321 6.16533 22.1321H3.85067C3.75637 22.1321 3.66593 22.1695 3.59925 22.2362C3.53257 22.3029 3.49511 22.3933 3.49511 22.4876V24.7987C3.49511 24.893 3.53257 24.9835 3.59925 25.0502C3.66593 25.1168 3.75637 25.1543 3.85067 25.1543ZM4.20622 22.8396H5.80622V24.4396H4.20622V22.8396ZM31.6444 31.4334H30.8196V14.3845C30.8196 14.2902 30.7821 14.1998 30.7154 14.1331C30.6487 14.0664 30.5583 14.029 30.464 14.029C30.3697 14.029 30.2793 14.0664 30.2126 14.1331C30.1459 14.1998 30.1084 14.2902 30.1084 14.3845V16.9196H26.1973V14.3845C26.1973 14.2902 26.1599 14.1998 26.0932 14.1331C26.0265 14.0664 25.9361 14.029 25.8418 14.029H22.72V0.500087C22.72 0.405788 22.6825 0.315351 22.6159 0.248671C22.5492 0.181992 22.4587 0.144531 22.3644 0.144531H20.0498C19.9555 0.144531 19.865 0.181992 19.7984 0.248671C19.7317 0.315351 19.6942 0.405788 19.6942 0.500087V3.61475H8.83556V0.500087C8.83556 0.405788 8.7981 0.315351 8.73142 0.248671C8.66474 0.181992 8.5743 0.144531 8.48 0.144531H6.16533C6.07103 0.144531 5.9806 0.181992 5.91392 0.248671C5.84724 0.315351 5.80978 0.405788 5.80978 0.500087V3.61475H4.20978V0.500087C4.20978 0.405788 4.17232 0.315351 4.10564 0.248671C4.03896 0.181992 3.94852 0.144531 3.85422 0.144531H1.53956C1.44526 0.144531 1.35482 0.181992 1.28814 0.248671C1.22146 0.315351 1.184 0.405788 1.184 0.500087V31.4334H0.355556C0.261256 31.4334 0.170819 31.4709 0.10414 31.5376C0.0374603 31.6042 0 31.6947 0 31.789C0 31.8833 0.0374603 31.9737 0.10414 32.0404C0.170819 32.1071 0.261256 32.1445 0.355556 32.1445H31.6444C31.7387 32.1445 31.8292 32.1071 31.8959 32.0404C31.9625 31.9737 32 31.8833 32 31.789C32 31.6947 31.9625 31.6042 31.8959 31.5376C31.8292 31.4709 31.7387 31.4334 31.6444 31.4334ZM18.0907 15.1845V10.9179C18.0907 10.8236 18.0532 10.7331 17.9865 10.6664C17.9198 10.5998 17.8294 10.5623 17.7351 10.5623H11.1502V9.74453C11.1502 9.65023 11.1128 9.55979 11.0461 9.49311C10.9794 9.42644 10.889 9.38898 10.7947 9.38898H8.83556V6.64409H19.6942V15.1774L18.0907 15.1845ZM4.224 15.1845V12.4254H5.824V15.1845H4.224ZM22.0053 4.32942V5.92942H1.89511V4.32942H22.0053ZM10.4356 10.9143V11.7143H1.90222V10.1001H10.4356V10.9143ZM3.49511 6.64764V9.38898H1.89511V6.64409L3.49511 6.64764ZM5.80978 6.64764V9.38898H4.20978V6.64409L5.80978 6.64764ZM6.52089 9.4032V6.64409H8.12444V9.38898L6.52089 9.4032ZM1.89867 12.429H3.49867V15.1845H1.89867V12.429ZM6.52089 12.429H8.12444V15.1845H6.52089V12.429ZM8.83556 12.429H10.4356V15.1845H8.83556V12.429ZM20.4053 6.64409H22.0053V15.1774H20.4053V6.64409ZM22.72 23.4192H25.4791V31.4334H22.72V23.4192ZM26.1902 20.525H30.1013V22.7045H26.1902V20.525ZM26.1902 26.3099H30.1013V28.4894H26.1902V26.3099ZM30.1013 23.4192V25.5988H26.1902V23.4192H30.1013ZM26.1902 29.2041H30.1013V31.4334H26.1902V29.2041ZM30.1013 17.6343V19.8139H26.1902V17.6343H30.1013ZM25.4791 14.7401V22.7045H22.72V14.7401H25.4791ZM20.4053 0.855642H22.0053V3.6112H20.4053V0.855642ZM6.53867 0.855642H8.14222V3.6112H6.52089L6.53867 0.855642ZM3.49511 0.855642V3.6112H1.89511V0.855642H3.49511ZM1.89511 25.4103V15.8992H10.784C10.8783 15.8992 10.9687 15.8617 11.0354 15.7951C11.1021 15.7284 11.1396 15.6379 11.1396 15.5436V11.277H17.3796V15.5436C17.3796 15.6379 17.417 15.7284 17.4837 15.7951C17.5504 15.8617 17.6408 15.8992 17.7351 15.8992H22.0018V31.4334H15.7796V27.4654H17.1556C17.2499 27.4654 17.3403 27.428 17.407 27.3613C17.4737 27.2946 17.5111 27.2042 17.5111 27.1099C17.5111 27.0156 17.4737 26.9251 17.407 26.8584C17.3403 26.7918 17.2499 26.7543 17.1556 26.7543H6.75556C6.66126 26.7543 6.57082 26.7918 6.50414 26.8584C6.43746 26.9251 6.4 27.0156 6.4 27.1099C6.4 27.2042 6.43746 27.2946 6.50414 27.3613C6.57082 27.428 6.66126 27.4654 6.75556 27.4654H8.13511V31.4334H1.89511V25.4103ZM11.5947 27.4619V31.4334H8.83556V27.4654L11.5947 27.4619ZM12.3058 27.4619H15.0649V31.4334H12.3058V27.4619ZM18.6702 29.421C18.6702 29.5153 18.6328 29.6057 18.5661 29.6724C18.4994 29.7391 18.409 29.7765 18.3147 29.7765H17.1556C17.0613 29.7765 16.9708 29.7391 16.9041 29.6724C16.8375 29.6057 16.8 29.5153 16.8 29.421C16.8 29.3267 16.8375 29.2362 16.9041 29.1696C16.9708 29.1029 17.0613 29.0654 17.1556 29.0654H18.3147C18.3617 29.0654 18.4082 29.0747 18.4516 29.0928C18.4949 29.1109 18.5343 29.1374 18.5673 29.1708C18.6004 29.2042 18.6265 29.2438 18.6442 29.2874C18.6618 29.3309 18.6707 29.3775 18.6702 29.4245V29.421ZM19.4702 29.0654H20.6222C20.7165 29.0654 20.807 29.1029 20.8736 29.1696C20.9403 29.2362 20.9778 29.3267 20.9778 29.421C20.9778 29.5153 20.9403 29.6057 20.8736 29.6724C20.807 29.7391 20.7165 29.7765 20.6222 29.7765H19.4702C19.3759 29.7765 19.2855 29.7391 19.2188 29.6724C19.1521 29.6057 19.1147 29.5153 19.1147 29.421C19.1147 29.3267 19.1521 29.2362 19.2188 29.1696C19.2855 29.1029 19.3759 29.0654 19.4702 29.0654ZM4.78578 29.421C4.78578 29.5153 4.74832 29.6057 4.68164 29.6724C4.61496 29.7391 4.52452 29.7765 4.43022 29.7765H3.27467C3.18037 29.7765 3.08993 29.7391 3.02325 29.6724C2.95657 29.6057 2.91911 29.5153 2.91911 29.421C2.91911 29.3267 2.95657 29.2362 3.02325 29.1696C3.08993 29.1029 3.18037 29.0654 3.27467 29.0654H4.43022C4.47721 29.0654 4.52374 29.0747 4.56711 29.0928C4.61049 29.1109 4.64984 29.1374 4.6829 29.1708C4.71597 29.2042 4.74208 29.2438 4.75974 29.2874C4.7774 29.3309 4.78625 29.3775 4.78578 29.4245V29.421ZM7.10044 29.421C7.10044 29.5153 7.06298 29.6057 6.9963 29.6724C6.92963 29.7391 6.83919 29.7765 6.74489 29.7765H5.58933C5.49503 29.7765 5.4046 29.7391 5.33792 29.6724C5.27124 29.6057 5.23378 29.5153 5.23378 29.421C5.23378 29.3267 5.27124 29.2362 5.33792 29.1696C5.4046 29.1029 5.49503 29.0654 5.58933 29.0654H6.75556C6.80255 29.0654 6.84908 29.0747 6.89245 29.0928C6.93582 29.1109 6.97517 29.1374 7.00824 29.1708C7.0413 29.2042 7.06742 29.2438 7.08507 29.2874C7.10273 29.3309 7.11158 29.3775 7.11111 29.4245L7.10044 29.421Z" fill="#AC9899"/>
</g>
<defs>
<clipPath id="clip0_159_3663">
<rect width="32" height="32.7111" fill="white" transform="translate(0 0.144531)"/>
</clipPath>
</defs>
</svg>
