<svg width="36" height="36" viewBox="0 0 36 36" fill="none" xmlns="http://www.w3.org/2000/svg">
<path d="M14.0752 4.63234L15.3732 6.9582C16.5446 9.05716 16.0744 11.8106 14.2294 13.6556C14.2294 13.6556 14.2294 13.6556 14.2294 13.6556C14.2292 13.6558 11.9918 15.8937 16.049 19.951C20.105 24.0069 22.3428 21.7722 22.3444 21.7706C22.3444 21.7705 22.3444 21.7706 22.3445 21.7705C24.1894 19.9256 26.9429 19.4554 29.0418 20.6268L31.3677 21.9248C34.5371 23.6936 34.9114 28.1385 32.1255 30.9244C30.4515 32.5984 28.4008 33.901 26.1338 33.9869C22.3176 34.1316 15.8366 33.1657 9.33541 26.6646C2.83426 20.1634 1.86843 13.6824 2.0131 9.86617C2.09904 7.5992 3.40161 5.54847 5.07561 3.87446C7.86151 1.08856 12.3063 1.46287 14.0752 4.63234Z" stroke="white" stroke-width="3" stroke-linecap="round"/>
</svg>
