<svg width="100" height="100" viewBox="0 0 100 100" fill="none" xmlns="http://www.w3.org/2000/svg">
<circle cx="50" cy="50" r="50" fill="#027ACA" fill-opacity="0.02"/>
<g clip-path="url(#clip0_18_539)">
<path d="M21.3657 49.8638C21.3642 55.283 22.7802 60.5746 25.4727 65.2385L21.1082 81.1741L37.4162 76.8981C41.9268 79.3535 46.9805 80.6402 52.1162 80.6406H52.1297C69.0834 80.6406 82.8842 66.8448 82.8914 49.888C82.8947 41.6713 79.6977 33.9448 73.8892 28.1318C68.0817 22.3193 60.3579 19.1165 52.1284 19.1128C35.1727 19.1128 21.3729 32.9078 21.3659 49.8638" fill="url(#paint0_linear_18_539)"/>
<path d="M20.2675 49.854C20.2658 55.4683 21.7325 60.949 24.521 65.78L20 82.2868L36.8927 77.8575C41.5472 80.3953 46.7878 81.7333 52.1203 81.7353H52.134C69.696 81.7353 83.9925 67.4433 84 49.8795C84.003 41.3675 80.691 33.3633 74.675 27.342C68.6582 21.3215 60.6582 18.0035 52.134 18C34.569 18 20.2745 32.29 20.2675 49.854ZM30.3278 64.948L29.697 63.9468C27.0455 59.7308 25.646 54.8588 25.648 49.856C25.6535 35.2573 37.5345 23.38 52.144 23.38C59.219 23.383 65.868 26.141 70.869 31.145C75.8698 36.1495 78.6215 42.802 78.6198 49.8775C78.6133 64.4763 66.732 76.355 52.134 76.355H52.1235C47.3703 76.3525 42.7085 75.076 38.643 72.6638L37.6755 72.09L27.651 74.7183L30.3278 64.948Z" fill="url(#paint1_linear_18_539)"/>
<path d="M44.1694 36.5369C43.5729 35.2111 42.9451 35.1844 42.3779 35.1611C41.9134 35.1411 41.3824 35.1426 40.8519 35.1426C40.3209 35.1426 39.4581 35.3424 38.7289 36.1386C37.9989 36.9356 35.9419 38.8616 35.9419 42.7789C35.9419 46.6961 38.7951 50.4821 39.1929 51.0139C39.5911 51.5446 44.7011 59.8406 52.7941 63.0321C59.5201 65.6844 60.8889 65.1569 62.3486 65.0239C63.8086 64.8914 67.0596 63.0984 67.7229 61.2391C68.3866 59.3801 68.3866 57.7866 68.1876 57.4536C67.9886 57.1219 67.4576 56.9226 66.6614 56.5246C65.8651 56.1266 61.9504 54.2001 61.2206 53.9344C60.4906 53.6689 59.9599 53.5364 59.4289 54.3336C58.8979 55.1296 57.3731 56.9226 56.9084 57.4536C56.4441 57.9859 55.9794 58.0521 55.1834 57.6539C54.3866 57.2544 51.8224 56.4146 48.7801 53.7024C46.4131 51.5919 44.8151 48.9856 44.3506 48.1884C43.8861 47.3924 44.3009 46.9609 44.7001 46.5641C45.0579 46.2074 45.4966 45.6344 45.8951 45.1696C46.2921 44.7046 46.4246 44.3729 46.6901 43.8419C46.9559 43.3104 46.8229 42.8454 46.6241 42.4471C46.4246 42.0489 44.8774 38.1111 44.1694 36.5369Z" fill="white"/>
<circle cx="71" cy="31" r="8" fill="#F52338"/>
</g>
<defs>
<linearGradient id="paint0_linear_18_539" x1="3110.27" y1="6225.24" x2="3110.27" y2="19.1128" gradientUnits="userSpaceOnUse">
<stop stop-color="#1FAF38"/>
<stop offset="1" stop-color="#60D669"/>
</linearGradient>
<linearGradient id="paint1_linear_18_539" x1="3220" y1="6446.68" x2="3220" y2="18" gradientUnits="userSpaceOnUse">
<stop stop-color="#F9F9F9"/>
<stop offset="1" stop-color="white"/>
</linearGradient>
<clipPath id="clip0_18_539">
<rect width="64" height="64.5" fill="white" transform="translate(20 18)"/>
</clipPath>
</defs>
</svg>
